<svg xmlns="http://www.w3.org/2000/svg" xmlns:xlink="http://www.w3.org/1999/xlink" width="290" zoomAndPan="magnify" viewBox="0 0 217.5 121.500001" height="162" preserveAspectRatio="xMidYMid meet" version="1.0"><defs><g/><clipPath id="8a7a3c3b70"><path d="M 122.21875 0.625 L 216.238281 0.625 L 216.238281 114.351562 L 122.21875 114.351562 Z M 122.21875 0.625 " clip-rule="nonzero"/></clipPath><clipPath id="76124f7221"><path d="M 122.21875 0.65625 L 216.230469 0.65625 L 216.230469 114.328125 L 122.21875 114.328125 Z M 122.21875 0.65625 " clip-rule="nonzero"/></clipPath><clipPath id="69bd91bf23"><path d="M 0.90625 0.625 L 95.023438 0.625 L 95.023438 114.351562 L 0.90625 114.351562 Z M 0.90625 0.625 " clip-rule="nonzero"/></clipPath><clipPath id="5b2f62df3d"><path d="M 0.90625 0.65625 L 95.023438 0.65625 L 95.023438 114.328125 L 0.90625 114.328125 Z M 0.90625 0.65625 " clip-rule="nonzero"/></clipPath><clipPath id="c91cc24cc4"><path d="M 1 0.625 L 216.59375 0.625 L 216.59375 35.921875 L 1 35.921875 Z M 1 0.625 " clip-rule="nonzero"/></clipPath><clipPath id="d04228dd8b"><path d="M 0.90625 0.65625 L 216.589844 0.65625 L 216.589844 35.921875 L 0.90625 35.921875 Z M 0.90625 0.65625 " clip-rule="nonzero"/></clipPath><clipPath id="4fc04a6c5c"><path d="M 75 33 L 112 33 L 112 121 L 75 121 Z M 75 33 " clip-rule="nonzero"/></clipPath><clipPath id="1b44dc6f76"><path d="M 75.125 102.152344 L 119.238281 30.296875 L 149.316406 48.761719 L 105.207031 120.617188 Z M 75.125 102.152344 " clip-rule="nonzero"/></clipPath><clipPath id="45053aae43"><path d="M 5.171875 122.441406 L 78.003906 3.792969 L 149.859375 47.902344 L 77.027344 166.550781 Z M 5.171875 122.441406 " clip-rule="nonzero"/></clipPath><clipPath id="46fd9b3722"><path d="M 88 30 L 121 30 L 121 114 L 88 114 Z M 88 30 " clip-rule="nonzero"/></clipPath><clipPath id="30db7f856f"><path d="M 75.125 102.152344 L 119.238281 30.296875 L 149.316406 48.761719 L 105.207031 120.617188 Z M 75.125 102.152344 " clip-rule="nonzero"/></clipPath><clipPath id="fccd89e614"><path d="M 5.171875 122.441406 L 78.003906 3.792969 L 149.859375 47.902344 L 77.027344 166.550781 Z M 5.171875 122.441406 " clip-rule="nonzero"/></clipPath><clipPath id="e1f5b24192"><path d="M 45.6875 57.640625 L 171.785156 57.640625 L 171.785156 87.453125 L 45.6875 87.453125 Z M 45.6875 57.640625 " clip-rule="nonzero"/></clipPath></defs><g clip-path="url(#8a7a3c3b70)"><path fill="#000000" d="M 184.574219 32.230469 C 164.226562 11.933594 137.167969 0.753906 108.390625 0.753906 C 79.710938 0.753906 52.742188 11.855469 32.417969 32.019531 C 32.398438 32.039062 32.378906 32.054688 32.359375 32.070312 C 32.351562 32.082031 32.339844 32.09375 32.332031 32.105469 C 32.289062 32.148438 32.246094 32.1875 32.203125 32.230469 C 11.851562 52.527344 0.644531 79.515625 0.644531 108.222656 C 0.644531 111.539062 3.34375 114.230469 6.671875 114.230469 L 28.808594 114.230469 C 32.136719 114.230469 34.832031 111.539062 34.832031 108.222656 C 34.832031 104.902344 32.136719 102.210938 28.808594 102.210938 L 12.886719 102.210938 C 14.253906 80.328125 23.050781 60.425781 36.78125 44.976562 L 45.882812 54.054688 C 47.0625 55.226562 48.601562 55.8125 50.144531 55.8125 C 51.6875 55.8125 53.230469 55.226562 54.40625 54.050781 C 56.757812 51.703125 56.757812 47.898438 54.40625 45.550781 L 45.324219 36.5 C 60.761719 22.976562 80.585938 14.324219 102.363281 12.96875 L 102.363281 25.515625 C 102.363281 28.835938 105.0625 31.527344 108.390625 31.527344 C 111.71875 31.527344 114.414062 28.835938 114.414062 25.515625 L 114.414062 12.96875 C 136.292969 14.332031 156.203125 23.058594 171.671875 36.691406 L 162.785156 45.550781 C 160.429688 47.898438 160.429688 51.703125 162.78125 54.050781 C 163.957031 55.226562 165.5 55.8125 167.042969 55.8125 C 168.585938 55.8125 170.128906 55.226562 171.304688 54.054688 L 180.191406 45.191406 C 193.8125 60.609375 202.53125 80.433594 203.894531 102.210938 L 187.929688 102.210938 C 184.605469 102.210938 181.90625 104.902344 181.90625 108.222656 C 181.90625 111.539062 184.605469 114.230469 187.929688 114.230469 L 210.105469 114.230469 C 213.433594 114.230469 216.132812 111.539062 216.132812 108.222656 C 216.132812 79.515625 204.925781 52.527344 184.574219 32.230469 " fill-opacity="1" fill-rule="nonzero"/></g><g clip-path="url(#76124f7221)"><path fill="#000000" d="M 187.929688 102.308594 C 184.664062 102.308594 182.003906 104.960938 182.003906 108.222656 C 182.003906 111.480469 184.664062 114.132812 187.929688 114.132812 L 210.105469 114.132812 C 213.375 114.132812 216.035156 111.480469 216.035156 108.222656 C 216.035156 79.542969 204.835938 52.578125 184.503906 32.300781 C 164.175781 12.019531 137.140625 0.851562 108.390625 0.851562 C 79.75 0.851562 52.792969 11.945312 32.488281 32.089844 C 32.476562 32.101562 32.464844 32.109375 32.453125 32.121094 C 32.445312 32.125 32.4375 32.132812 32.429688 32.140625 L 32.273438 32.300781 C 11.941406 52.578125 0.742188 79.542969 0.742188 108.222656 C 0.742188 111.480469 3.402344 114.132812 6.671875 114.132812 L 28.808594 114.132812 C 32.074219 114.132812 34.734375 111.480469 34.734375 108.222656 C 34.734375 104.960938 32.074219 102.308594 28.808594 102.308594 L 12.78125 102.308594 L 12.789062 102.203125 C 13.460938 91.46875 15.921875 81.019531 20.105469 71.144531 C 24.167969 61.5625 29.75 52.734375 36.707031 44.910156 L 36.773438 44.832031 L 45.953125 53.984375 C 47.074219 55.101562 48.5625 55.714844 50.144531 55.714844 C 51.730469 55.714844 53.21875 55.101562 54.335938 53.984375 C 56.648438 51.679688 56.648438 47.925781 54.335938 45.621094 L 45.179688 36.496094 L 45.257812 36.425781 C 53.078125 29.578125 61.882812 24.078125 71.429688 20.082031 C 81.265625 15.960938 91.671875 13.535156 102.359375 12.871094 L 102.460938 12.863281 L 102.460938 25.515625 C 102.460938 28.777344 105.121094 31.429688 108.390625 31.429688 C 111.65625 31.429688 114.316406 28.777344 114.316406 25.515625 L 114.316406 12.863281 L 114.421875 12.871094 C 125.15625 13.539062 135.605469 15.984375 145.484375 20.140625 C 155.070312 24.167969 163.902344 29.714844 171.738281 36.617188 L 171.816406 36.6875 L 162.851562 45.621094 C 160.542969 47.925781 160.539062 51.675781 162.851562 53.984375 C 163.96875 55.101562 165.460938 55.714844 167.042969 55.714844 C 168.625 55.714844 170.113281 55.101562 171.234375 53.984375 L 180.195312 45.050781 L 180.265625 45.128906 C 187.164062 52.9375 192.703125 61.734375 196.730469 71.277344 C 200.878906 81.113281 203.324219 91.519531 203.992188 102.203125 L 204 102.308594 Z M 210.105469 114.328125 L 187.929688 114.328125 C 184.554688 114.328125 181.808594 111.589844 181.808594 108.222656 C 181.808594 104.855469 184.554688 102.113281 187.929688 102.113281 L 203.789062 102.113281 C 202.441406 80.953125 194.28125 61.324219 180.1875 45.335938 L 171.371094 54.125 C 170.21875 55.277344 168.679688 55.910156 167.042969 55.910156 C 165.40625 55.910156 163.871094 55.277344 162.710938 54.121094 C 160.324219 51.738281 160.324219 47.863281 162.714844 45.484375 L 171.527344 36.695312 C 155.484375 22.585938 135.773438 14.421875 114.511719 13.074219 L 114.511719 25.515625 C 114.511719 28.882812 111.765625 31.625 108.390625 31.625 C 105.011719 31.625 102.265625 28.882812 102.265625 25.515625 L 102.265625 13.074219 C 81.109375 14.414062 61.476562 22.515625 45.46875 36.503906 L 54.472656 45.484375 C 56.863281 47.863281 56.863281 51.738281 54.476562 54.121094 C 53.320312 55.277344 51.78125 55.910156 50.144531 55.910156 C 48.507812 55.910156 46.972656 55.277344 45.816406 54.125 L 36.785156 45.117188 C 22.773438 60.917969 14.324219 81.152344 12.988281 102.113281 L 28.808594 102.113281 C 32.183594 102.113281 34.929688 104.855469 34.929688 108.222656 C 34.929688 111.589844 32.183594 114.328125 28.808594 114.328125 L 6.671875 114.328125 C 3.292969 114.328125 0.546875 111.589844 0.546875 108.222656 C 0.546875 79.488281 11.765625 52.476562 32.132812 32.160156 L 32.261719 32.039062 C 32.277344 32.019531 32.285156 32.011719 32.292969 32.003906 C 32.304688 31.992188 32.3125 31.980469 32.328125 31.972656 L 32.347656 31.949219 C 52.691406 11.769531 79.695312 0.65625 108.390625 0.65625 C 137.195312 0.65625 164.277344 11.84375 184.644531 32.160156 C 205.015625 52.476562 216.230469 79.488281 216.230469 108.222656 C 216.230469 111.589844 213.484375 114.328125 210.105469 114.328125 " fill-opacity="1" fill-rule="nonzero"/></g><g clip-path="url(#69bd91bf23)"><path fill="#000000" d="M 32.511719 32.230469 C 52.863281 11.933594 79.917969 0.753906 108.699219 0.753906 C 137.378906 0.753906 164.34375 11.855469 184.671875 32.019531 C 184.6875 32.039062 184.707031 32.054688 184.726562 32.070312 C 184.738281 32.082031 184.746094 32.09375 184.757812 32.105469 C 184.800781 32.148438 184.84375 32.1875 184.886719 32.230469 C 205.234375 52.527344 216.441406 79.515625 216.441406 108.222656 C 216.441406 111.539062 213.742188 114.230469 210.417969 114.230469 L 188.28125 114.230469 C 184.953125 114.230469 182.253906 111.539062 182.253906 108.222656 C 182.253906 104.902344 184.953125 102.210938 188.28125 102.210938 L 204.203125 102.210938 C 202.835938 80.328125 194.039062 60.425781 180.308594 44.976562 L 171.203125 54.054688 C 170.027344 55.226562 168.484375 55.8125 166.945312 55.8125 C 165.402344 55.8125 163.859375 55.226562 162.683594 54.050781 C 160.328125 51.703125 160.328125 47.898438 162.683594 45.550781 L 171.761719 36.5 C 156.324219 22.976562 136.5 14.324219 114.722656 12.96875 L 114.722656 25.515625 C 114.722656 28.835938 112.027344 31.527344 108.699219 31.527344 C 105.371094 31.527344 102.671875 28.835938 102.671875 25.515625 L 102.671875 12.96875 C 80.792969 14.332031 60.886719 23.058594 45.414062 36.691406 L 54.304688 45.550781 C 56.660156 47.898438 56.660156 51.703125 54.304688 54.050781 C 53.128906 55.226562 51.585938 55.8125 50.042969 55.8125 C 48.503906 55.8125 46.960938 55.226562 45.785156 54.054688 L 36.894531 45.191406 C 23.277344 60.609375 14.558594 80.433594 13.195312 102.210938 L 29.15625 102.210938 C 32.484375 102.210938 35.183594 104.902344 35.183594 108.222656 C 35.183594 111.539062 32.484375 114.230469 29.15625 114.230469 L 6.980469 114.230469 C 3.652344 114.230469 0.953125 111.539062 0.953125 108.222656 C 0.953125 79.515625 12.160156 52.527344 32.511719 32.230469 " fill-opacity="1" fill-rule="nonzero"/></g><g clip-path="url(#5b2f62df3d)"><path fill="#000000" d="M 29.15625 102.308594 C 32.425781 102.308594 35.085938 104.960938 35.085938 108.222656 C 35.085938 111.480469 32.425781 114.132812 29.15625 114.132812 L 6.980469 114.132812 C 3.710938 114.132812 1.050781 111.480469 1.050781 108.222656 C 1.050781 79.542969 12.25 52.578125 32.582031 32.300781 C 52.914062 12.019531 79.945312 0.851562 108.699219 0.851562 C 137.339844 0.851562 164.296875 11.945312 184.601562 32.089844 C 184.613281 32.101562 184.621094 32.109375 184.632812 32.121094 C 184.640625 32.125 184.648438 32.132812 184.65625 32.140625 L 184.816406 32.300781 C 205.148438 52.578125 216.34375 79.542969 216.34375 108.222656 C 216.34375 111.480469 213.683594 114.132812 210.417969 114.132812 L 188.28125 114.132812 C 185.011719 114.132812 182.351562 111.480469 182.351562 108.222656 C 182.351562 104.960938 185.011719 102.308594 188.28125 102.308594 L 204.308594 102.308594 L 204.300781 102.203125 C 203.628906 91.46875 201.167969 81.019531 196.980469 71.144531 C 192.921875 61.5625 187.335938 52.734375 180.382812 44.910156 L 180.3125 44.832031 L 171.136719 53.984375 C 170.015625 55.101562 168.527344 55.714844 166.945312 55.714844 C 165.359375 55.714844 163.871094 55.101562 162.75 53.984375 C 160.441406 51.679688 160.441406 47.925781 162.753906 45.621094 L 171.90625 36.496094 L 171.828125 36.425781 C 164.007812 29.578125 155.203125 24.078125 145.660156 20.082031 C 135.820312 15.960938 125.414062 13.535156 114.730469 12.871094 L 114.625 12.863281 L 114.625 25.515625 C 114.625 28.777344 111.96875 31.429688 108.699219 31.429688 C 105.429688 31.429688 102.769531 28.777344 102.769531 25.515625 L 102.769531 12.863281 L 102.667969 12.871094 C 91.933594 13.539062 81.480469 15.984375 71.601562 20.140625 C 62.019531 24.167969 53.1875 29.714844 45.351562 36.617188 L 45.273438 36.6875 L 54.234375 45.621094 C 56.546875 47.925781 56.546875 51.675781 54.238281 53.984375 C 53.117188 55.101562 51.628906 55.714844 50.042969 55.714844 C 48.460938 55.714844 46.972656 55.101562 45.855469 53.984375 L 36.890625 45.050781 L 36.824219 45.128906 C 29.925781 52.9375 24.386719 61.734375 20.359375 71.277344 C 16.207031 81.113281 13.765625 91.519531 13.097656 102.203125 L 13.089844 102.308594 Z M 6.980469 114.328125 L 29.15625 114.328125 C 32.535156 114.328125 35.28125 111.589844 35.28125 108.222656 C 35.28125 104.855469 32.535156 102.113281 29.15625 102.113281 L 13.300781 102.113281 C 14.644531 80.953125 22.804688 61.324219 36.902344 45.335938 L 45.714844 54.125 C 46.871094 55.277344 48.410156 55.910156 50.042969 55.910156 C 51.679688 55.910156 53.21875 55.277344 54.375 54.121094 C 56.761719 51.738281 56.761719 47.863281 54.375 45.484375 L 45.558594 36.695312 C 61.601562 22.585938 81.316406 14.421875 102.574219 13.074219 L 102.574219 25.515625 C 102.574219 28.882812 105.320312 31.625 108.699219 31.625 C 112.074219 31.625 114.824219 28.882812 114.824219 25.515625 L 114.824219 13.074219 C 135.976562 14.414062 155.613281 22.515625 171.621094 36.503906 L 162.613281 45.484375 C 160.226562 47.863281 160.226562 51.738281 162.613281 54.121094 C 163.769531 55.277344 165.308594 55.910156 166.945312 55.910156 C 168.578125 55.910156 170.117188 55.277344 171.273438 54.125 L 180.304688 45.117188 C 194.316406 60.917969 202.765625 81.152344 204.097656 102.113281 L 188.28125 102.113281 C 184.90625 102.113281 182.15625 104.855469 182.15625 108.222656 C 182.15625 111.589844 184.90625 114.328125 188.28125 114.328125 L 210.417969 114.328125 C 213.792969 114.328125 216.539062 111.589844 216.539062 108.222656 C 216.539062 79.488281 205.324219 52.476562 184.953125 32.160156 L 184.828125 32.039062 C 184.808594 32.019531 184.804688 32.011719 184.796875 32.003906 C 184.785156 31.992188 184.773438 31.980469 184.761719 31.972656 L 184.738281 31.949219 C 164.394531 11.769531 137.390625 0.65625 108.699219 0.65625 C 79.894531 0.65625 52.8125 11.84375 32.445312 32.160156 C 12.074219 52.476562 0.855469 79.488281 0.855469 108.222656 C 0.855469 111.589844 3.605469 114.328125 6.980469 114.328125 " fill-opacity="1" fill-rule="nonzero"/></g><g clip-path="url(#c91cc24cc4)"><path fill="#272324" d="M 184.933594 32.230469 C 164.582031 11.933594 137.523438 0.753906 108.746094 0.753906 C 80.066406 0.753906 53.101562 11.855469 32.773438 32.019531 C 32.757812 32.039062 32.734375 32.054688 32.71875 32.070312 C 32.707031 32.082031 32.699219 32.09375 32.6875 32.105469 C 32.644531 32.148438 32.601562 32.1875 32.558594 32.230469 C 12.210938 52.527344 1.003906 79.515625 1.003906 108.222656 C 1.003906 111.539062 3.699219 114.230469 7.027344 114.230469 L 29.164062 114.230469 C 32.492188 114.230469 35.191406 111.539062 35.191406 108.222656 C 35.191406 104.902344 32.492188 102.210938 29.164062 102.210938 L 13.242188 102.210938 C 14.609375 80.328125 23.40625 60.425781 37.136719 44.976562 L 46.242188 54.054688 C 47.417969 55.226562 48.960938 55.8125 50.5 55.8125 C 52.042969 55.8125 53.585938 55.226562 54.761719 54.050781 C 57.117188 51.703125 57.113281 47.898438 54.761719 45.550781 L 45.679688 36.5 C 61.121094 22.976562 80.945312 14.324219 102.71875 12.96875 L 102.71875 25.515625 C 102.71875 28.835938 105.417969 31.527344 108.746094 31.527344 C 112.074219 31.527344 114.773438 28.835938 114.773438 25.515625 L 114.773438 12.96875 C 136.652344 14.332031 156.558594 23.058594 172.027344 36.691406 L 163.140625 45.550781 C 160.785156 47.898438 160.785156 51.703125 163.136719 54.050781 C 164.316406 55.226562 165.859375 55.8125 167.402344 55.8125 C 168.941406 55.8125 170.484375 55.226562 171.660156 54.054688 L 180.546875 45.191406 C 194.167969 60.609375 202.886719 80.433594 204.25 102.210938 L 188.289062 102.210938 C 184.960938 102.210938 182.261719 104.902344 182.261719 108.222656 C 182.261719 111.539062 184.960938 114.230469 188.289062 114.230469 L 210.464844 114.230469 C 213.792969 114.230469 216.492188 111.539062 216.492188 108.222656 C 216.492188 79.515625 205.28125 52.527344 184.933594 32.230469 " fill-opacity="1" fill-rule="nonzero"/></g><g clip-path="url(#d04228dd8b)"><path fill="#272324" d="M 188.289062 102.308594 C 185.019531 102.308594 182.359375 104.960938 182.359375 108.222656 C 182.359375 111.480469 185.019531 114.132812 188.289062 114.132812 L 210.464844 114.132812 C 213.734375 114.132812 216.394531 111.480469 216.394531 108.222656 C 216.394531 79.542969 205.195312 52.578125 184.863281 32.300781 C 164.53125 12.019531 137.5 0.851562 108.746094 0.851562 C 80.105469 0.851562 53.148438 11.945312 32.84375 32.089844 C 32.832031 32.101562 32.820312 32.109375 32.8125 32.121094 C 32.804688 32.125 32.796875 32.132812 32.785156 32.140625 L 32.628906 32.300781 C 12.296875 52.578125 1.101562 79.542969 1.101562 108.222656 C 1.101562 111.480469 3.757812 114.132812 7.027344 114.132812 L 29.164062 114.132812 C 32.433594 114.132812 35.089844 111.480469 35.089844 108.222656 C 35.089844 104.960938 32.433594 102.308594 29.164062 102.308594 L 13.136719 102.308594 L 13.144531 102.203125 C 13.816406 91.46875 16.277344 81.019531 20.464844 71.144531 C 24.523438 61.5625 30.109375 52.734375 37.0625 44.910156 L 37.132812 44.832031 L 46.308594 53.984375 C 47.429688 55.101562 48.917969 55.714844 50.5 55.714844 C 52.085938 55.714844 53.574219 55.101562 54.695312 53.984375 C 57.003906 51.679688 57.003906 47.925781 54.691406 45.621094 L 45.539062 36.496094 L 45.617188 36.425781 C 53.433594 29.578125 62.242188 24.078125 71.785156 20.082031 C 81.625 15.960938 92.03125 13.535156 102.714844 12.871094 L 102.820312 12.863281 L 102.820312 25.515625 C 102.820312 28.777344 105.476562 31.429688 108.746094 31.429688 C 112.015625 31.429688 114.675781 28.777344 114.675781 25.515625 L 114.675781 12.863281 L 114.777344 12.871094 C 125.511719 13.539062 135.964844 15.984375 145.84375 20.140625 C 155.425781 24.167969 164.257812 29.714844 172.09375 36.617188 L 172.171875 36.6875 L 163.210938 45.621094 C 160.898438 47.925781 160.898438 51.675781 163.207031 53.984375 C 164.328125 55.101562 165.816406 55.714844 167.402344 55.714844 C 168.984375 55.714844 170.472656 55.101562 171.589844 53.984375 L 180.554688 45.050781 L 180.621094 45.128906 C 187.519531 52.9375 193.058594 61.734375 197.085938 71.277344 C 201.238281 81.113281 203.679688 91.519531 204.347656 102.203125 L 204.355469 102.308594 Z M 210.464844 114.328125 L 188.289062 114.328125 C 184.910156 114.328125 182.164062 111.589844 182.164062 108.222656 C 182.164062 104.855469 184.910156 102.113281 188.289062 102.113281 L 204.144531 102.113281 C 202.800781 80.953125 194.640625 61.324219 180.542969 45.335938 L 171.730469 54.125 C 170.574219 55.277344 169.035156 55.910156 167.402344 55.910156 C 165.765625 55.910156 164.226562 55.277344 163.070312 54.121094 C 160.683594 51.738281 160.683594 47.863281 163.070312 45.484375 L 171.886719 36.695312 C 155.839844 22.585938 136.128906 14.421875 114.871094 13.074219 L 114.871094 25.515625 C 114.871094 28.882812 112.121094 31.625 108.746094 31.625 C 105.367188 31.625 102.621094 28.882812 102.621094 25.515625 L 102.621094 13.074219 C 81.46875 14.414062 61.832031 22.515625 45.824219 36.503906 L 54.832031 45.484375 C 57.21875 47.863281 57.21875 51.738281 54.832031 54.121094 C 53.675781 55.277344 52.136719 55.910156 50.5 55.910156 C 48.867188 55.910156 47.328125 55.277344 46.171875 54.125 L 37.140625 45.117188 C 23.128906 60.917969 14.679688 81.152344 13.347656 102.113281 L 29.164062 102.113281 C 32.539062 102.113281 35.289062 104.855469 35.289062 108.222656 C 35.289062 111.589844 32.539062 114.328125 29.164062 114.328125 L 7.027344 114.328125 C 3.652344 114.328125 0.90625 111.589844 0.90625 108.222656 C 0.90625 79.488281 12.121094 52.476562 32.492188 32.160156 L 32.617188 32.039062 C 32.632812 32.019531 32.640625 32.011719 32.648438 32.003906 C 32.660156 31.992188 32.671875 31.980469 32.683594 31.972656 L 32.707031 31.949219 C 53.046875 11.769531 80.054688 0.65625 108.746094 0.65625 C 137.550781 0.65625 164.632812 11.84375 185 32.160156 C 205.371094 52.476562 216.589844 79.488281 216.589844 108.222656 C 216.589844 111.589844 213.839844 114.328125 210.464844 114.328125 " fill-opacity="1" fill-rule="nonzero"/></g><g clip-path="url(#4fc04a6c5c)"><g clip-path="url(#1b44dc6f76)"><g clip-path="url(#45053aae43)"><path fill="#ffff00" d="M 111.367188 33.945312 L 103.140625 54.027344 C 103.140625 54.027344 92.238281 52.484375 75.007812 60.621094 C 73.578125 61.296875 72.207031 62.078125 70.898438 62.96875 C 70.183594 63.457031 69.335938 64.0625 68.378906 64.789062 C 46.523438 81.515625 39.390625 111.296875 50.746094 136.285156 C 54.542969 144.640625 60.417969 153.667969 69.335938 159.292969 C 69.335938 159.292969 57.289062 154.4375 47.402344 139.953125 C 29.78125 114.140625 31.84375 79.230469 52.394531 55.5 C 56.5625 50.699219 61.257812 46.496094 66.484375 42.886719 C 66.484375 42.886719 83.183594 30.761719 111.367188 33.945312 Z M 111.367188 33.945312 " fill-opacity="1" fill-rule="nonzero"/></g></g></g><g clip-path="url(#46fd9b3722)"><g clip-path="url(#30db7f856f)"><g clip-path="url(#fccd89e614)"><path fill="#ffff00" d="M 112.339844 91.671875 L 112.316406 91.65625 C 112.609375 92.023438 112.878906 92.402344 113.128906 92.796875 C 113.378906 93.191406 113.609375 93.597656 113.816406 94.015625 C 114.023438 94.4375 114.207031 94.867188 114.371094 95.304688 C 114.53125 95.742188 114.667969 96.191406 114.78125 96.644531 C 114.898438 97.097656 114.988281 97.558594 115.050781 98.019531 C 115.117188 98.484375 115.15625 98.949219 115.171875 99.417969 C 115.1875 99.886719 115.179688 100.355469 115.144531 100.824219 C 115.109375 101.289062 115.050781 101.753906 114.96875 102.214844 C 114.882812 102.679688 114.777344 103.132812 114.644531 103.585938 C 114.511719 104.035156 114.355469 104.476562 114.179688 104.910156 C 114 105.34375 113.796875 105.769531 113.574219 106.179688 C 113.351562 106.59375 113.105469 106.992188 112.839844 107.378906 C 112.574219 107.765625 112.285156 108.136719 111.980469 108.492188 C 111.675781 108.851562 111.351562 109.1875 111.011719 109.511719 C 110.667969 109.832031 110.3125 110.136719 109.9375 110.417969 C 109.566406 110.703125 109.179688 110.964844 108.777344 111.210938 C 108.375 111.453125 107.960938 111.671875 107.539062 111.871094 C 107.113281 112.070312 106.679688 112.246094 106.238281 112.398438 C 105.792969 112.550781 105.34375 112.679688 104.886719 112.78125 C 104.433594 112.886719 103.972656 112.964844 103.507812 113.023438 C 103.042969 113.078125 102.578125 113.105469 102.109375 113.113281 C 101.640625 113.117188 101.175781 113.097656 100.710938 113.054688 C 100.246094 113.007812 99.785156 112.941406 99.324219 112.847656 C 98.867188 112.753906 98.417969 112.636719 97.972656 112.492188 C 97.527344 112.351562 97.089844 112.183594 96.664062 111.996094 C 96.238281 111.808594 95.820312 111.597656 95.417969 111.363281 C 95.011719 111.128906 94.621094 110.875 94.246094 110.601562 C 93.867188 110.324219 93.507812 110.03125 93.160156 109.71875 C 92.816406 109.402344 92.488281 109.070312 92.175781 108.722656 C 91.867188 108.375 91.578125 108.007812 91.304688 107.628906 C 91.035156 107.246094 90.785156 106.855469 90.554688 106.445312 C 90.324219 106.039062 90.117188 105.621094 89.933594 105.191406 C 89.75 104.761719 89.589844 104.324219 89.449219 103.875 C 89.3125 103.429688 89.199219 102.976562 89.109375 102.515625 C 89.019531 102.054688 88.953125 101.59375 88.914062 101.125 C 88.875 100.660156 88.859375 100.191406 88.867188 99.722656 C 88.878906 99.253906 88.910156 98.789062 88.96875 98.324219 C 89.03125 97.855469 89.113281 97.394531 89.222656 96.941406 C 89.328125 96.484375 89.460938 96.035156 89.617188 95.589844 C 89.773438 95.148438 89.953125 94.714844 90.152344 94.289062 C 90.355469 93.867188 90.578125 93.457031 90.824219 93.054688 C 91.070312 92.65625 91.335938 92.269531 91.621094 91.898438 C 91.90625 91.523438 92.210938 91.167969 92.535156 90.828125 C 92.859375 90.488281 93.203125 90.167969 93.558594 89.867188 C 93.917969 89.5625 94.289062 89.277344 94.679688 89.015625 C 95.066406 88.75 95.46875 88.507812 95.878906 88.289062 C 96.292969 88.066406 96.71875 87.871094 97.152344 87.695312 C 97.585938 87.519531 98.027344 87.367188 98.480469 87.238281 L 98.460938 87.226562 L 120.390625 29.828125 Z M 112.339844 91.671875 " fill-opacity="1" fill-rule="nonzero"/></g></g></g><g fill="#ffff00" fill-opacity="1"><g transform="translate(47.406641, 107.65725)"><g><path d="M 8.597656 0.355469 C 13.753906 0.355469 16.738281 -1.835938 16.738281 -5.5625 C 16.738281 -8.777344 14.75 -10.4375 10.003906 -11.152344 C 7.910156 -11.457031 7.273438 -11.816406 7.273438 -12.554688 C 7.273438 -13.089844 7.707031 -13.421875 8.421875 -13.421875 C 9.261719 -13.421875 9.695312 -12.964844 9.695312 -12.042969 L 16.382812 -12.042969 C 16.203125 -15.972656 13.292969 -18.21875 8.371094 -18.21875 C 3.496094 -18.21875 0.5625 -16.050781 0.5625 -12.402344 C 0.5625 -9.160156 2.550781 -7.503906 7.09375 -6.839844 C 9.085938 -6.53125 9.796875 -6.148438 9.796875 -5.410156 C 9.796875 -4.847656 9.390625 -4.515625 8.652344 -4.515625 C 7.78125 -4.515625 7.324219 -5 7.324219 -5.921875 L 0.433594 -5.921875 C 0.433594 -1.964844 3.417969 0.355469 8.597656 0.355469 Z M 8.597656 0.355469 "/></g></g></g><g fill="#ffff00" fill-opacity="1"><g transform="translate(64.655553, 107.65725)"><g><path d="M 10.078125 0.355469 C 15.488281 0.355469 19.445312 -2.882812 19.929688 -7.988281 L 13.015625 -7.988281 C 12.632812 -6.8125 11.636719 -6.125 10.386719 -6.125 C 8.804688 -6.125 7.757812 -7.273438 7.757812 -8.929688 C 7.757812 -10.617188 8.828125 -11.738281 10.410156 -11.738281 C 11.609375 -11.738281 12.605469 -11.074219 12.988281 -9.925781 L 19.902344 -9.925781 C 19.1875 -15.183594 15.589844 -18.21875 10.054688 -18.21875 C 4.414062 -18.21875 0.484375 -14.417969 0.484375 -8.929688 C 0.484375 -3.394531 4.3125 0.355469 10.078125 0.355469 Z M 10.078125 0.355469 "/></g></g></g><g fill="#ffff00" fill-opacity="1"><g transform="translate(85.034934, 107.65725)"><g/></g></g><g fill="#ffff00" fill-opacity="1"><g transform="translate(90.444362, 107.65725)"><g/></g></g><g fill="#ffff00" fill-opacity="1"><g transform="translate(95.85379, 107.65725)"><g/></g></g><g fill="#ffff00" fill-opacity="1"><g transform="translate(101.263218, 107.65725)"><g/></g></g><g fill="#ffff00" fill-opacity="1"><g transform="translate(106.672646, 107.65725)"><g/></g></g><g fill="#ffff00" fill-opacity="1"><g transform="translate(112.082074, 107.65725)"><g/></g></g><g fill="#ffff00" fill-opacity="1"><g transform="translate(117.477449, 107.65725)"><g><path d="M 1.25 0 L 8.421875 0 L 8.421875 -4.441406 L 9.46875 -4.441406 L 11.152344 0 L 18.910156 0 L 16.230469 -5.996094 C 17.710938 -7.171875 18.527344 -8.929688 18.527344 -11.152344 C 18.527344 -15.3125 15.640625 -17.863281 10.921875 -17.863281 L 1.25 -17.863281 Z M 8.320312 -9.390625 L 8.320312 -12.582031 L 9.542969 -12.582031 C 10.640625 -12.582031 11.277344 -12.070312 11.277344 -11 C 11.277344 -9.925781 10.640625 -9.390625 9.542969 -9.390625 Z M 8.320312 -9.390625 "/></g></g></g><g fill="#ffff00" fill-opacity="1"><g transform="translate(136.920735, 107.65725)"><g><path d="M 1.25 0 L 15.054688 0 L 15.054688 -5 L 8.214844 -5 L 8.214844 -6.660156 L 14.238281 -6.660156 L 14.238281 -11.328125 L 8.214844 -11.328125 L 8.214844 -12.9375 L 14.851562 -12.9375 L 14.851562 -17.863281 L 1.25 -17.863281 Z M 1.25 0 "/></g></g></g><g fill="#ffff00" fill-opacity="1"><g transform="translate(152.817285, 107.65725)"><g><path d="M 8.597656 0.355469 C 13.753906 0.355469 16.738281 -1.835938 16.738281 -5.5625 C 16.738281 -8.777344 14.75 -10.4375 10.003906 -11.152344 C 7.910156 -11.457031 7.273438 -11.816406 7.273438 -12.554688 C 7.273438 -13.089844 7.707031 -13.421875 8.421875 -13.421875 C 9.261719 -13.421875 9.695312 -12.964844 9.695312 -12.042969 L 16.382812 -12.042969 C 16.203125 -15.972656 13.292969 -18.21875 8.371094 -18.21875 C 3.496094 -18.21875 0.5625 -16.050781 0.5625 -12.402344 C 0.5625 -9.160156 2.550781 -7.503906 7.09375 -6.839844 C 9.085938 -6.53125 9.796875 -6.148438 9.796875 -5.410156 C 9.796875 -4.847656 9.390625 -4.515625 8.652344 -4.515625 C 7.78125 -4.515625 7.324219 -5 7.324219 -5.921875 L 0.433594 -5.921875 C 0.433594 -1.964844 3.417969 0.355469 8.597656 0.355469 Z M 8.597656 0.355469 "/></g></g></g><g clip-path="url(#e1f5b24192)"><path fill="#000000" d="M 45.6875 57.640625 L 171.585938 57.640625 L 171.585938 88.21875 L 45.6875 88.21875 Z M 45.6875 57.640625 " fill-opacity="1" fill-rule="nonzero"/></g><g fill="#ffffff" fill-opacity="1"><g transform="translate(48.217073, 81.281332)"><g><path d="M 10.550781 0.332031 C 14.902344 0.332031 18.4375 -2.304688 19.511719 -6.300781 L 17.132812 -6.300781 C 16.210938 -3.609375 13.675781 -1.921875 10.625 -1.921875 C 6.632812 -1.921875 3.789062 -4.8125 3.789062 -8.960938 C 3.789062 -13.109375 6.632812 -16.003906 10.625 -16.003906 C 13.597656 -16.003906 16.03125 -14.417969 16.953125 -11.832031 L 19.359375 -11.832031 C 18.179688 -15.773438 14.773438 -18.257812 10.550781 -18.257812 C 5.273438 -18.257812 1.484375 -14.367188 1.484375 -8.960938 C 1.484375 -3.558594 5.273438 0.332031 10.550781 0.332031 Z M 10.550781 0.332031 "/></g></g></g><g fill="#ffffff" fill-opacity="1"><g transform="translate(71.054208, 81.281332)"><g><path d="M 10.753906 0.332031 C 16.210938 0.332031 20.050781 -3.507812 20.050781 -8.960938 C 20.050781 -14.417969 16.210938 -18.257812 10.753906 -18.257812 C 5.300781 -18.257812 1.484375 -14.417969 1.484375 -8.960938 C 1.484375 -3.507812 5.300781 0.332031 10.753906 0.332031 Z M 3.789062 -8.960938 C 3.789062 -13.136719 6.632812 -16.003906 10.753906 -16.003906 C 14.878906 -16.003906 17.71875 -13.136719 17.71875 -8.960938 C 17.71875 -4.789062 14.878906 -1.921875 10.753906 -1.921875 C 6.632812 -1.921875 3.789062 -4.789062 3.789062 -8.960938 Z M 3.789062 -8.960938 "/></g></g></g><g fill="#ffffff" fill-opacity="1"><g transform="translate(94.505748, 81.281332)"><g><path d="M 2.613281 0 L 8.808594 0 C 14.3125 0 18 -3.660156 18 -8.960938 C 18 -14.261719 14.3125 -17.925781 8.808594 -17.925781 L 2.613281 -17.925781 Z M 4.867188 -2.152344 L 4.867188 -15.773438 L 8.707031 -15.773438 C 12.878906 -15.773438 15.695312 -13.035156 15.695312 -8.960938 C 15.695312 -4.890625 12.90625 -2.152344 8.808594 -2.152344 Z M 4.867188 -2.152344 "/></g></g></g><g fill="#ffffff" fill-opacity="1"><g transform="translate(115.93483, 81.281332)"><g><path d="M 2.613281 0 L 13.777344 0 L 13.777344 -2.101562 L 4.867188 -2.101562 L 4.867188 -8.09375 L 12.855469 -8.09375 L 12.855469 -10.164062 L 4.867188 -10.164062 L 4.867188 -15.824219 L 13.496094 -15.824219 L 13.496094 -17.925781 L 2.613281 -17.925781 Z M 2.613281 0 "/></g></g></g><g fill="#ffffff" fill-opacity="1"><g transform="translate(133.319031, 81.281332)"><g><path d="M 2.613281 0 L 4.867188 0 L 4.867188 -6.425781 L 8.808594 -6.425781 L 13.1875 0 L 15.902344 0 L 11.394531 -6.65625 C 14.007812 -7.296875 15.621094 -9.269531 15.621094 -12.164062 C 15.621094 -15.722656 13.160156 -17.925781 9.449219 -17.925781 L 2.613281 -17.925781 Z M 4.867188 -8.578125 L 4.867188 -15.773438 L 9.191406 -15.773438 C 11.804688 -15.773438 13.316406 -14.441406 13.316406 -12.164062 C 13.316406 -9.882812 11.804688 -8.578125 9.191406 -8.578125 Z M 4.867188 -8.578125 "/></g></g></g><g fill="#ffffff" fill-opacity="1"><g transform="translate(152.700074, 81.281332)"><g><path d="M 8.578125 0.332031 C 12.496094 0.332031 15.03125 -1.585938 15.03125 -4.710938 C 15.03125 -7.347656 13.265625 -8.9375 8.679688 -10.0625 C 5.199219 -10.910156 4.046875 -11.832031 4.046875 -13.316406 C 4.046875 -15.03125 5.582031 -16.105469 8.144531 -16.105469 C 10.78125 -16.105469 12.417969 -14.773438 12.46875 -12.625 L 14.699219 -12.625 C 14.671875 -16.105469 12.164062 -18.257812 8.144531 -18.257812 C 4.226562 -18.257812 1.742188 -16.335938 1.742188 -13.316406 C 1.742188 -10.550781 3.714844 -9.015625 8.117188 -7.964844 C 11.34375 -7.195312 12.699219 -6.300781 12.699219 -4.636719 C 12.699219 -2.867188 11.113281 -1.816406 8.578125 -1.816406 C 5.789062 -1.816406 3.839844 -3.199219 3.789062 -5.503906 L 1.535156 -5.503906 C 1.5625 -1.996094 4.300781 0.332031 8.578125 0.332031 Z M 8.578125 0.332031 "/></g></g></g></svg>