<svg xmlns="http://www.w3.org/2000/svg" xmlns:xlink="http://www.w3.org/1999/xlink" width="139" zoomAndPan="magnify" viewBox="0 0 104.25 42.749999" height="57" preserveAspectRatio="xMidYMid meet" version="1.0"><defs><g/><clipPath id="222c1d42c5"><path d="M 7.316406 3.460938 L 78.800781 3.460938 L 78.800781 38.992188 L 7.316406 38.992188 Z M 7.316406 3.460938 " clip-rule="nonzero"/></clipPath><clipPath id="b033919954"><path d="M 4.925781 0.734375 L 103.210938 0.734375 L 103.210938 41.6875 L 4.925781 41.6875 Z M 4.925781 0.734375 " clip-rule="nonzero"/></clipPath></defs><g clip-path="url(#222c1d42c5)"><path fill="#000000" d="M 7.316406 3.460938 L 78.726562 3.460938 L 78.726562 39.167969 L 7.316406 39.167969 Z M 7.316406 3.460938 " fill-opacity="1" fill-rule="nonzero"/></g><g clip-path="url(#b033919954)"><path stroke-linecap="butt" transform="matrix(0.743235, 0, 0, 0.74422, 4.925493, 0.733642)" fill="none" stroke-linejoin="miter" d="M 0.000387522 0.000984308 L 132.240029 0.000984308 L 132.240029 55.029233 L 0.000387522 55.029233 L 0.000387522 0.000984308 " stroke="#000000" stroke-width="4" stroke-opacity="1" stroke-miterlimit="4"/></g><g fill="#ffffff" fill-opacity="1"><g transform="translate(12.342478, 18.888274)"><g><path d="M 6.191406 0.195312 C 8.746094 0.195312 10.820312 -1.351562 11.449219 -3.695312 L 10.050781 -3.695312 C 9.511719 -2.117188 8.023438 -1.128906 6.234375 -1.128906 C 3.890625 -1.128906 2.222656 -2.824219 2.222656 -5.257812 C 2.222656 -7.691406 3.890625 -9.390625 6.234375 -9.390625 C 7.980469 -9.390625 9.40625 -8.460938 9.949219 -6.941406 L 11.359375 -6.941406 C 10.667969 -9.257812 8.671875 -10.714844 6.191406 -10.714844 C 3.09375 -10.714844 0.871094 -8.429688 0.871094 -5.257812 C 0.871094 -2.089844 3.09375 0.195312 6.191406 0.195312 Z M 6.191406 0.195312 "/></g></g></g><g fill="#ffffff" fill-opacity="1"><g transform="translate(25.741717, 18.888274)"><g><path d="M 6.3125 0.195312 C 9.511719 0.195312 11.765625 -2.058594 11.765625 -5.257812 C 11.765625 -8.460938 9.511719 -10.714844 6.3125 -10.714844 C 3.109375 -10.714844 0.871094 -8.460938 0.871094 -5.257812 C 0.871094 -2.058594 3.109375 0.195312 6.3125 0.195312 Z M 2.222656 -5.257812 C 2.222656 -7.707031 3.890625 -9.390625 6.3125 -9.390625 C 8.730469 -9.390625 10.398438 -7.707031 10.398438 -5.257812 C 10.398438 -2.808594 8.730469 -1.128906 6.3125 -1.128906 C 3.890625 -1.128906 2.222656 -2.808594 2.222656 -5.257812 Z M 2.222656 -5.257812 "/></g></g></g><g fill="#ffffff" fill-opacity="1"><g transform="translate(39.50146, 18.888274)"><g><path d="M 1.53125 0 L 5.167969 0 C 8.398438 0 10.5625 -2.148438 10.5625 -5.257812 C 10.5625 -8.371094 8.398438 -10.519531 5.167969 -10.519531 L 1.53125 -10.519531 Z M 2.855469 -1.261719 L 2.855469 -9.257812 L 5.109375 -9.257812 C 7.558594 -9.257812 9.210938 -7.648438 9.210938 -5.257812 C 9.210938 -2.871094 7.574219 -1.261719 5.167969 -1.261719 Z M 2.855469 -1.261719 "/></g></g></g><g fill="#ffff00" fill-opacity="1"><g transform="translate(51.277061, 33.318884)"><g><path d="M 1.285156 0 L 4.792969 0 L 4.792969 -3.457031 L 6.113281 -3.457031 L 7.847656 0 L 11.824219 0 L 9.585938 -4.097656 C 10.871094 -4.808594 11.601562 -6.09375 11.601562 -7.796875 C 11.601562 -10.488281 9.777344 -12.15625 6.824219 -12.15625 L 1.285156 -12.15625 Z M 4.722656 -6.25 L 4.722656 -9.289062 L 6.355469 -9.289062 C 7.46875 -9.289062 8.074219 -8.753906 8.074219 -7.78125 C 8.074219 -6.808594 7.46875 -6.25 6.355469 -6.25 Z M 4.722656 -6.25 "/></g></g></g><g fill="#ffff00" fill-opacity="1"><g transform="translate(63.777346, 33.318884)"><g><path d="M 1.285156 0 L 9.8125 0 L 9.8125 -2.867188 L 4.757812 -2.867188 L 4.757812 -4.742188 L 9.152344 -4.742188 L 9.152344 -7.554688 L 4.757812 -7.554688 L 4.757812 -9.324219 L 9.621094 -9.324219 L 9.621094 -12.15625 L 1.285156 -12.15625 Z M 1.285156 0 "/></g></g></g><g fill="#ffff00" fill-opacity="1"><g transform="translate(11.807666, 33.424575)"><g><path d="M 5.675781 0.261719 C 8.710938 0.261719 10.511719 -1.167969 10.511719 -3.578125 C 10.511719 -5.605469 9.199219 -6.792969 6.234375 -7.453125 C 4.660156 -7.804688 4.085938 -8.1875 4.085938 -8.816406 C 4.085938 -9.410156 4.609375 -9.777344 5.429688 -9.777344 C 6.40625 -9.777344 6.964844 -9.269531 6.964844 -8.34375 L 10.28125 -8.34375 C 10.28125 -10.859375 8.363281 -12.484375 5.359375 -12.484375 C 2.480469 -12.484375 0.699219 -11.050781 0.699219 -8.746094 C 0.699219 -6.6875 2.042969 -5.410156 4.800781 -4.886719 C 6.285156 -4.589844 7 -4.136719 7 -3.4375 C 7 -2.828125 6.476562 -2.480469 5.621094 -2.480469 C 4.609375 -2.480469 4.015625 -3.019531 4.015625 -3.964844 L 0.609375 -3.964844 C 0.609375 -1.328125 2.496094 0.261719 5.675781 0.261719 Z M 5.675781 0.261719 "/></g></g></g><g fill="#ffff00" fill-opacity="1"><g transform="translate(22.959644, 33.424575)"><g><path d="M 7 0.261719 C 10.371094 0.261719 12.917969 -1.78125 13.441406 -4.886719 L 9.863281 -4.886719 C 9.425781 -3.734375 8.398438 -3.003906 7.070312 -3.003906 C 5.359375 -3.003906 4.171875 -4.277344 4.171875 -6.109375 C 4.171875 -7.960938 5.378906 -9.21875 7.105469 -9.21875 C 8.378906 -9.21875 9.445312 -8.503906 9.8125 -7.402344 L 13.371094 -7.402344 C 12.746094 -10.492188 10.230469 -12.484375 6.964844 -12.484375 C 3.195312 -12.484375 0.59375 -9.882812 0.59375 -6.109375 C 0.59375 -2.339844 3.195312 0.261719 7 0.261719 Z M 7 0.261719 "/></g></g></g><g fill="#ffff00" fill-opacity="1"><g transform="translate(36.95633, 33.424575)"><g><path d="M 7.246094 0.261719 C 11.136719 0.261719 13.898438 -2.375 13.898438 -6.109375 C 13.898438 -9.847656 11.136719 -12.484375 7.246094 -12.484375 C 3.351562 -12.484375 0.59375 -9.847656 0.59375 -6.109375 C 0.59375 -2.375 3.351562 0.261719 7.246094 0.261719 Z M 4.171875 -6.109375 C 4.171875 -7.945312 5.445312 -9.21875 7.246094 -9.21875 C 9.0625 -9.21875 10.316406 -7.945312 10.316406 -6.109375 C 10.316406 -4.277344 9.0625 -3.003906 7.246094 -3.003906 C 5.445312 -3.003906 4.171875 -4.277344 4.171875 -6.109375 Z M 4.171875 -6.109375 "/></g></g></g><g fill="#ffff00" fill-opacity="1"><g transform="translate(51.549879, 19.671741)"><g><path d="M 1.292969 0 L 9.863281 0 L 9.863281 -2.878906 L 4.785156 -2.878906 L 4.785156 -4.765625 L 9.199219 -4.765625 L 9.199219 -7.59375 L 4.785156 -7.59375 L 4.785156 -9.375 L 9.671875 -9.375 L 9.671875 -12.21875 L 1.292969 -12.21875 Z M 1.292969 0 "/></g></g></g><g fill="#ffff00" fill-opacity="1"><g transform="translate(62.196869, 19.671741)"><g><path d="M 1.292969 0 L 4.820312 0 L 4.820312 -3.472656 L 6.144531 -3.472656 L 7.890625 0 L 11.890625 0 L 9.636719 -4.121094 C 10.929688 -4.835938 11.660156 -6.128906 11.660156 -7.839844 C 11.660156 -10.542969 9.828125 -12.21875 6.859375 -12.21875 L 1.292969 -12.21875 Z M 4.75 -6.285156 L 4.75 -9.339844 L 6.390625 -9.339844 C 7.507812 -9.339844 8.117188 -8.796875 8.117188 -7.820312 C 8.117188 -6.84375 7.507812 -6.285156 6.390625 -6.285156 Z M 4.75 -6.285156 "/></g></g></g><g fill="#000000" fill-opacity="1"><g transform="translate(78.91908, 32.51428)"><g><path d="M 11.167969 0.515625 C 17.144531 0.515625 20.683594 -2.300781 20.683594 -7.042969 C 20.683594 -11.027344 18.105469 -13.363281 12.265625 -14.671875 C 9.171875 -15.359375 8.039062 -16.113281 8.039062 -17.351562 C 8.039062 -18.519531 9.070312 -19.242188 10.683594 -19.242188 C 12.609375 -19.242188 13.707031 -18.242188 13.707031 -16.421875 L 20.238281 -16.421875 C 20.238281 -21.371094 16.457031 -24.566406 10.546875 -24.566406 C 4.878906 -24.566406 1.375 -21.75 1.375 -17.214844 C 1.375 -13.160156 4.019531 -10.652344 9.449219 -9.621094 C 12.367188 -9.035156 13.777344 -8.144531 13.777344 -6.769531 C 13.777344 -5.566406 12.746094 -4.878906 11.0625 -4.878906 C 9.070312 -4.878906 7.902344 -5.945312 7.902344 -7.800781 L 1.203125 -7.800781 C 1.203125 -2.609375 4.914062 0.515625 11.167969 0.515625 Z M 11.167969 0.515625 "/></g></g></g></svg>