<?xml version="1.0" encoding="UTF-8" standalone="no"?><svg xmlns="http://www.w3.org/2000/svg" class="normal" viewBox="0 0 304.491 39.026"><path fill="#2f8d46" d="M76.417 19.203a12.252 12.252 0 0 0-.26-1.513l-30.727-.027a12.545 12.545 0 0 1 .908-3.443 12.337 12.337 0 0 1 2.74-4.044 12.151 12.151 0 0 1 4.017-2.58 12.634 12.634 0 0 1 14.3 3.05l4.852-4.748a18.176 18.176 0 0 0-6.13-4.33A20.037 20.037 0 0 0 58.003.002a20.25 20.25 0 0 0-7.67 1.46 19.158 19.158 0 0 0-6.262 4.07 19.584 19.584 0 0 0-4.226 6.183 18.7 18.7 0 0 0-1.487 5.947h-.2a18.674 18.674 0 0 0-1.489-5.947 19.544 19.544 0 0 0-4.226-6.184 19.133 19.133 0 0 0-6.26-4.07 21.354 21.354 0 0 0-15.784.1 18.2 18.2 0 0 0-6.13 4.331l4.852 4.748a13.264 13.264 0 0 1 14.3-3.05 12.131 12.131 0 0 1 4.017 2.58 12.323 12.323 0 0 1 2.74 4.044 12.527 12.527 0 0 1 .908 3.443l-30.726.027a12.256 12.256 0 0 0-.26 1.513 15 15 0 0 0-.1 1.773 20.713 20.713 0 0 0 1.1 6.783 15.709 15.709 0 0 0 3.442 5.686 17.309 17.309 0 0 0 6 4.123 20.587 20.587 0 0 0 7.983 1.46 20.226 20.226 0 0 0 7.67-1.46 19.086 19.086 0 0 0 6.26-4.07 19.506 19.506 0 0 0 4.226-6.184 18.163 18.163 0 0 0 1.153-3.629h.871a18.27 18.27 0 0 0 1.151 3.63 19.545 19.545 0 0 0 4.226 6.183 19.111 19.111 0 0 0 6.261 4.07 20.241 20.241 0 0 0 7.671 1.46 20.572 20.572 0 0 0 7.981-1.46 17.282 17.282 0 0 0 6-4.123 15.717 15.717 0 0 0 3.445-5.686 20.726 20.726 0 0 0 1.1-6.783 15.259 15.259 0 0 0-.124-1.768zm-46.245 5.608a12.1 12.1 0 0 1-2.766 4.043 12.467 12.467 0 0 1-4.043 2.583 14.378 14.378 0 0 1-9.939.052 11.776 11.776 0 0 1-3.522-2.218 8.459 8.459 0 0 1-1.8-2.374A13.476 13.476 0 0 1 6.93 23.69h23.658a11.487 11.487 0 0 1-.413 1.123zm38.236 2.086a8.466 8.466 0 0 1-1.8 2.374 11.771 11.771 0 0 1-3.522 2.218 14.378 14.378 0 0 1-9.939-.052 12.491 12.491 0 0 1-4.044-2.583 12.088 12.088 0 0 1-2.765-4.043 11.427 11.427 0 0 1-.415-1.126h23.66a13.509 13.509 0 0 1-1.174 3.213z"/><g data-name="Group 156"><path fill="#0f2b3c" d="M120.498 12.676h-1.077" data-name="Line 1"/></g><g data-name="Group 157"><path fill="#0f2b3c" d="m160.991 29.894-6.916-6.975v6.975h-3.183V8.016h3.183v12.908l6.267-6.239h4.027l-7.198 7.199 7.9 8.016z" data-name="Path 243"/></g><g data-name="Group 158"><path fill="#0f2b3c" d="M209.145 29.927V14.718h3.183v2.635a3.811 3.811 0 0 1 1.49-1.967 4.017 4.017 0 0 1 2.33-.752 5.61 5.61 0 0 1 1.245.115l-.72 3.09a2.523 2.523 0 0 0-.868-.084 3.136 3.136 0 0 0-2.46 1.172 4.817 4.817 0 0 0-1.013 3.255v7.742z" data-name="Path 244"/></g><g data-name="Group 159"><path fill="#0f2b3c" d="M167.785 28.846a5.839 5.839 0 0 1-2.217-2.764l2.75-1.206a3.856 3.856 0 0 0 1.417 1.712 3.767 3.767 0 0 0 2.09.59 4.17 4.17 0 0 0 1.935-.408 1.304 1.304 0 0 0 .786-1.22 1.408 1.408 0 0 0-.673-1.236 6.687 6.687 0 0 0-2.077-.786l-1.712-.422a6.154 6.154 0 0 1-2.835-1.487 3.556 3.556 0 0 1-1.122-2.694 3.502 3.502 0 0 1 .744-2.217 4.787 4.787 0 0 1 2.007-1.473 7.166 7.166 0 0 1 2.75-.515 7.407 7.407 0 0 1 3.508.8 4.738 4.738 0 0 1 2.189 2.314l-2.694 1.179a3.013 3.013 0 0 0-2.975-1.657 3.328 3.328 0 0 0-1.74.422 1.25 1.25 0 0 0-.701 1.095 1.263 1.263 0 0 0 .533 1.051 4.576 4.576 0 0 0 1.572.688l2.105.533a6.77 6.77 0 0 1 3.185 1.613 3.605 3.605 0 0 1 1.08 2.653 3.832 3.832 0 0 1-.771 2.369 4.974 4.974 0 0 1-2.12 1.585 7.664 7.664 0 0 1-2.973.562 6.985 6.985 0 0 1-4.041-1.08z" data-name="Path 245"/></g><g data-name="Group 160"><path fill="#0f2b3c" d="M199.269 14.734a7.596 7.596 0 1 0 7.596 7.596 7.596 7.596 0 0 0-7.596-7.596zm0 11.879a4.355 4.355 0 1 1 4.355-4.355 4.355 4.355 0 0 1-4.355 4.355z" data-name="Path 246"/></g><g data-name="Group 161"><path fill="#0f2b3c" d="M131.36 22.975c.018-.24.028-.48.025-.722a7.511 7.511 0 0 0-.218-1.735 7.597 7.597 0 0 0-14.975 1.895c0 .243.018.484.041.721a7.482 7.482 0 0 0 .694 2.454 7.596 7.596 0 0 0 13.792-.145l-3.366.035a4.756 4.756 0 0 1-8.255-2.37zm-12.015-2.335a4.753 4.753 0 0 1 8.851-.092z" data-name="Path 247"/></g><g data-name="Group 162"><path fill="#0f2b3c" d="M148.309 22.975c.017-.24.027-.48.025-.722a7.597 7.597 0 1 0-15.192.16c0 .243.017.484.04.721a7.475 7.475 0 0 0 .693 2.454 7.597 7.597 0 0 0 13.793-.145l-3.366.035a4.755 4.755 0 0 1-8.256-2.37zm-12.014-2.335a4.753 4.753 0 0 1 8.85-.092z" data-name="Path 248"/></g><g data-name="Group 163"><path fill="#0f2b3c" d="M186.864 11.723a2.575 2.575 0 0 1 1.854-.566 4.326 4.326 0 0 1 1.707.29V8.612a7.458 7.458 0 0 0-2.369-.347 4.965 4.965 0 0 0-3.559 1.316 4.806 4.806 0 0 0-1.39 3.661v1.46h-3.01v2.835h3.01v12.398h3.185v-12.4h4.136v-2.834h-4.136v-1.089a2.575 2.575 0 0 1 .572-1.89z" data-name="Path 249"/></g><g data-name="Group 164"><path fill="#0f2b3c" d="M114.404 18.97a10.957 10.957 0 1 1-2.802-7.314l-2.043 2.041a8.073 8.073 0 1 0 1.706 7.304h-7.09v-2.937h10.193q.036.445.036.906z" data-name="Path 250"/></g><g data-name="Group 165"><path fill="#0f2b3c" d="m287.788 29.894-6.916-6.975v6.975h-3.183V8.016h3.183v12.908l6.267-6.239h4.027l-7.198 7.199 7.9 8.016z" data-name="Path 251"/></g><g data-name="Group 166"><path fill="#0f2b3c" d="M294.583 28.846a5.838 5.838 0 0 1-2.217-2.764l2.75-1.206a3.855 3.855 0 0 0 1.417 1.712 3.768 3.768 0 0 0 2.09.59 4.173 4.173 0 0 0 1.937-.408 1.305 1.305 0 0 0 .786-1.22 1.408 1.408 0 0 0-.673-1.236 6.687 6.687 0 0 0-2.077-.786l-1.712-.422a6.154 6.154 0 0 1-2.834-1.487 3.555 3.555 0 0 1-1.123-2.694 3.502 3.502 0 0 1 .744-2.217 4.791 4.791 0 0 1 2.007-1.473 7.17 7.17 0 0 1 2.75-.515 7.407 7.407 0 0 1 3.508.8 4.738 4.738 0 0 1 2.189 2.314l-2.694 1.179a3.014 3.014 0 0 0-2.975-1.657 3.33 3.33 0 0 0-1.74.422 1.25 1.25 0 0 0-.701 1.095 1.264 1.264 0 0 0 .533 1.051 4.577 4.577 0 0 0 1.572.688l2.105.533a6.774 6.774 0 0 1 3.185 1.613 3.605 3.605 0 0 1 1.08 2.653 3.83 3.83 0 0 1-.771 2.369 4.978 4.978 0 0 1-2.12 1.585 7.664 7.664 0 0 1-2.974.562 6.985 6.985 0 0 1-4.042-1.08z" data-name="Path 252"/></g><g data-name="Group 167"><path fill="#0f2b3c" d="M258.158 22.975c.018-.24.028-.48.026-.722a7.597 7.597 0 1 0-15.193.16c0 .243.018.484.041.721a7.472 7.472 0 0 0 .694 2.454 7.597 7.597 0 0 0 13.792-.145l-3.367.035a4.755 4.755 0 0 1-8.255-2.37zm-12.014-2.335a4.754 4.754 0 0 1 8.851-.092z" data-name="Path 253"/></g><g data-name="Group 168"><path fill="#0f2b3c" d="M275.105 22.975c.017-.24.027-.48.024-.722a7.597 7.597 0 1 0-15.193.16c0 .243.018.484.042.721a7.485 7.485 0 0 0 .693 2.454 7.597 7.597 0 0 0 13.792-.145l-3.367.035a4.755 4.755 0 0 1-8.255-2.37zM263.09 20.64a4.753 4.753 0 0 1 8.85-.092z" data-name="Path 254"/></g><g data-name="Group 169"><path fill="#0f2b3c" d="M241.202 18.97a10.956 10.956 0 1 1-2.802-7.314l-2.043 2.041a8.073 8.073 0 1 0 1.706 7.304h-7.091v-2.937h10.193q.037.445.037.906z" data-name="Path 255"/></g></svg>